<svg width="78" height="152" viewBox="0 0 78 152" fill="none" xmlns="http://www.w3.org/2000/svg">
<circle cx="76" cy="76" r="76" fill="url(#paint0_linear_3502_12162)" fill-opacity="0.4"/>
<circle cx="76.0003" cy="76.0001" r="64.0315" fill="url(#paint1_linear_3502_12162)" fill-opacity="0.6"/>
<circle cx="76.5988" cy="75.4015" r="50.2677" fill="url(#paint2_linear_3502_12162)"/>
<path d="M71.6496 58.0168C72.5607 58.928 72.5607 60.4054 71.6496 61.3166L56.9662 76L71.6496 90.6835C72.5607 91.5946 72.5607 93.0721 71.6496 93.9833C70.7384 94.8944 69.2609 94.8944 68.3498 93.9833L52.0164 77.6499C51.1052 76.7388 51.1052 75.2613 52.0164 74.3501L68.3498 58.0168C69.2609 57.1056 70.7384 57.1056 71.6496 58.0168Z" fill="white"/>
<defs>
<linearGradient id="paint0_linear_3502_12162" x1="-14.5383" y1="-89.8782" x2="168.942" y2="-61.249" gradientUnits="userSpaceOnUse">
<stop stop-color="#E05B31"/>
<stop offset="1" stop-color="#F7941D"/>
</linearGradient>
<linearGradient id="paint1_linear_3502_12162" x1="-0.280054" y1="-63.7556" x2="154.305" y2="-39.6348" gradientUnits="userSpaceOnUse">
<stop stop-color="#E05B31"/>
<stop offset="1" stop-color="#F7941D"/>
</linearGradient>
<linearGradient id="paint2_linear_3502_12162" x1="16.7152" y1="-34.3132" x2="138.072" y2="-15.3773" gradientUnits="userSpaceOnUse">
<stop stop-color="#E05B31"/>
<stop offset="1" stop-color="#F7941D"/>
</linearGradient>
</defs>
</svg>
